<svg width="28" height="21" viewBox="0 0 28 21" fill="none" xmlns="http://www.w3.org/2000/svg">
<path d="M27.7429 2.74198L25.2587 0.257899C25.1773 0.176158 25.0805 0.111297 24.974 0.0670398C24.8674 0.0227825 24.7532 0 24.6378 0C24.5225 0 24.4082 0.0227825 24.3017 0.0670398C24.1951 0.111297 24.0984 0.176158 24.017 0.257899L11.3158 13.6657L4.03557 6.3826C3.86869 6.21579 3.64239 6.12209 3.40642 6.12209C3.17046 6.12209 2.94416 6.21579 2.77728 6.3826L0.260542 8.90123C0.0937169 9.06809 0 9.29437 0 9.53031C0 9.76625 0.0937169 9.99253 0.260542 10.1594L10.6148 20.7534C10.7104 20.8471 10.8265 20.9172 10.954 20.9582C11.0814 20.9992 11.2167 21.01 11.349 20.9897C11.4853 21.0133 11.6252 21.0043 11.7573 20.9632C11.8893 20.9221 12.0097 20.8502 12.1085 20.7534L27.7429 3.98433C27.9076 3.81955 28.0002 3.59609 28.0002 3.36308C28.0002 3.13008 27.9076 2.90677 27.7429 2.74198Z" fill="#286FF9"/>
</svg>
