<svg width="106" height="106" fill="none" xmlns="http://www.w3.org/2000/svg"><g clip-path="url(#clip0_4_509)" fill="#fff"><path d="M24.002 56.905a2.456 2.456 0 001.023-2.435l-1.262-7.633 5.334-5.392a2.475 2.475 0 00-1.38-4.185l-7.309-1.102-3.283-6.898a2.455 2.455 0 00-4.437 0l-3.282 6.898-7.31 1.102a2.474 2.474 0 00-1.38 4.185l5.335 5.392L4.79 54.47a2.456 2.456 0 003.598 2.577l6.52-3.554 6.519 3.554a2.436 2.436 0 002.576-.142zm-9.095-6.814c-.41 0-.813.103-1.173.3l-5.4 2.944 1.05-6.354a2.484 2.484 0 00-.682-2.148L4.18 40.26l6.182-.931a2.459 2.459 0 001.852-1.377l2.694-5.66 2.694 5.66a2.457 2.457 0 001.853 1.377l6.18.931-4.523 4.572a2.484 2.484 0 00-.682 2.148l1.051 6.355-5.402-2.945a2.447 2.447 0 00-1.17-.3zm90.961-11.182a2.454 2.454 0 00-1.964-1.65l-7.31-1.101-3.282-6.898a2.455 2.455 0 00-4.437 0l-3.283 6.898-7.31 1.102a2.474 2.474 0 00-1.379 4.185l5.334 5.392-1.261 7.633a2.456 2.456 0 003.598 2.577l6.52-3.554 6.518 3.554a2.46 2.46 0 003.599-2.577l-1.262-7.633 5.334-5.392a2.466 2.466 0 00.585-2.536zm-8.57 5.923a2.484 2.484 0 00-.682 2.148l1.05 6.355-5.402-2.945a2.443 2.443 0 00-2.344 0l-5.4 2.945 1.05-6.354a2.484 2.484 0 00-.681-2.148l-4.523-4.573 6.181-.931a2.458 2.458 0 001.852-1.377l2.694-5.66 2.694 5.66a2.457 2.457 0 001.853 1.377l6.181.931-4.523 4.572zm-53.154-25.85l-1.262 7.633a2.455 2.455 0 003.599 2.577L53 25.638l6.519 3.554a2.461 2.461 0 003.599-2.577l-1.262-7.633 5.334-5.391a2.475 2.475 0 00-1.379-4.186l-7.31-1.102-3.283-6.898a2.454 2.454 0 00-4.436 0l-3.283 6.898-7.31 1.102a2.473 2.473 0 00-1.379 4.185l5.334 5.392zm4.31-7.508a2.459 2.459 0 001.852-1.377L53 4.437l2.694 5.66a2.457 2.457 0 001.853 1.377l6.18.931-4.523 4.572a2.485 2.485 0 00-.681 2.147l1.05 6.356-5.402-2.945a2.444 2.444 0 00-2.344 0l-5.4 2.945 1.05-6.354a2.486 2.486 0 00-.681-2.149l-4.524-4.572 6.182-.931zm-39.746 2.85L7.97 18.79a2.158 2.158 0 003.162 2.247l3.775-2.058 3.776 2.058a2.159 2.159 0 003.16-2.249l-.738-4.463 3.115-3.149a2.159 2.159 0 00-1.213-3.652l-4.241-.64-1.91-4.014a2.158 2.158 0 00-3.898 0l-1.91 4.014-4.242.64a2.159 2.159 0 00-1.212 3.653l3.114 3.148zm3.448-4.292a2.154 2.154 0 001.63-1.206l1.12-2.358 1.123 2.358a2.152 2.152 0 001.626 1.206l2.665.401-1.98 2.003a2.167 2.167 0 00-.595 1.87l.451 2.724-2.257-1.23a2.147 2.147 0 00-2.065 0l-2.257 1.23.451-2.725a2.167 2.167 0 00-.595-1.87l-1.98-2.002 2.663-.4zm72.739 4.293l-.739 4.465a2.158 2.158 0 003.163 2.247l3.774-2.058 3.776 2.058a2.159 2.159 0 003.16-2.249l-.738-4.463 3.116-3.149a2.163 2.163 0 00.513-2.198 2.152 2.152 0 00-1.727-1.454l-4.24-.64-1.911-4.014a2.158 2.158 0 00-3.898 0l-1.91 4.014-4.241.64a2.16 2.16 0 00-1.212 3.653l3.114 3.148zm3.448-4.293a2.154 2.154 0 001.628-1.206l1.122-2.358 1.122 2.358a2.152 2.152 0 001.626 1.206l2.666.402-1.981 2.002a2.166 2.166 0 00-.594 1.87l.45 2.724-2.256-1.23a2.147 2.147 0 00-2.066 0l-2.256 1.23.45-2.725a2.168 2.168 0 00-.595-1.87l-1.98-2.002 2.664-.4zM75.215 45.581L61.75 43.697l-6.013-11.733a3.093 3.093 0 00-5.474 0L44.25 43.698 30.785 45.58a3.02 3.02 0 00-2.485 2.06 2.928 2.928 0 00.8 3.06l9.716 9.12-.954 5.351a8.4 8.4 0 011.187 1.22l2.627-3.75.43-2.418a2.942 2.942 0 00-.894-2.671l-9.383-8.807 13.01-1.82a3.059 3.059 0 002.303-1.621L53 33.87l5.86 11.432a3.06 3.06 0 002.302 1.621l13.009 1.82-9.381 8.806a2.942 2.942 0 00-.896 2.671l2.224 12.49-7.09-3.59a8.117 8.117 0 011.11 3.736 8.1 8.1 0 011.276 1.154l3.64 1.842a3.1 3.1 0 003.24-.261 2.944 2.944 0 001.183-2.908l-2.292-12.866 9.717-9.12a2.927 2.927 0 00.798-3.056 3.02 3.02 0 00-2.485-2.061z"/><path d="M61.714 82.668a4.826 4.826 0 00-1.794-.79 4.86 4.86 0 00-3.318-6.323 4.857 4.857 0 00-3.282-6.249l3.746-5.42a4.847 4.847 0 00-1.216-6.672 4.772 4.772 0 00-3.608-.827 4.647 4.647 0 00-3.04 1.947L38.124 74.359a9.928 9.928 0 00-1.475-5.034 4.776 4.776 0 00-3.146-2.002 3.796 3.796 0 00-3.143.543c-1.946 1.319-2.924 4.276-2.989 9.04l-1.336 16.732a3.267 3.267 0 00-3.666.885l-2.493 2.825a3.319 3.319 0 00.354 4.735l3.925 3.294a1.657 1.657 0 002.33-.21 1.652 1.652 0 00-.21-2.33l-3.924-3.294 2.492-2.827 10.606 8.903a1.656 1.656 0 002.33-.209 1.656 1.656 0 00-.209-2.33l-8.411-7.061 1.51-18.904c.003-.037.005-.075.005-.112.06-4.87 1.153-6.097 1.487-6.357.562-.437 1.457.123 1.797.6 1.254 1.763.977 6.224.503 8.654a1.708 1.708 0 001.006 1.854 1.814 1.814 0 002.189-.903l14.26-20.629a1.463 1.463 0 012.021-.307A1.519 1.519 0 0154.35 62L39.873 82.944a1.66 1.66 0 00.417 2.305 1.853 1.853 0 002.456-.451l8.139-11.769a1.36 1.36 0 01.892-.572 1.486 1.486 0 011.126.265 1.519 1.519 0 01.412 2.084L45.08 86.688a1.653 1.653 0 102.715 1.888l6.51-9.386c.206-.246.492-.412.807-.468a1.492 1.492 0 011.128.264 1.522 1.522 0 01.413 2.088l-6.346 9.174a1.881 1.881 0 00.966 2.706 1.743 1.743 0 001.894-.621l4.614-6.658a1.361 1.361 0 01.892-.569 1.49 1.49 0 011.128.264 1.522 1.522 0 01.405 2.097L49.39 103.418a1.663 1.663 0 00-.258 1.239 1.644 1.644 0 00.693 1.059 1.652 1.652 0 002.297-.435l10.808-15.94a4.85 4.85 0 00-1.216-6.673z"/></g><defs><clipPath id="clip0_4_509"><path fill="#fff" d="M0 0h106v106H0z"/></clipPath></defs></svg>