<svg width="104" height="104" fill="none" xmlns="http://www.w3.org/2000/svg"><path d="M52 103.857a9.882 9.882 0 01-8.187-4.243 6.867 6.867 0 00-8.517-2.294 10.026 10.026 0 01-14.143-8.203 6.883 6.883 0 00-6.286-6.285 10.027 10.027 0 01-8.203-14.143 6.851 6.851 0 00-2.278-8.502 10.026 10.026 0 010-16.39A6.867 6.867 0 006.68 35.28a10.026 10.026 0 018.203-14.143 6.883 6.883 0 006.286-6.286A10.027 10.027 0 0135.31 6.65a6.851 6.851 0 008.502-2.279 10.025 10.025 0 0116.39 0 6.867 6.867 0 008.517 2.294 10.025 10.025 0 0114.143 8.203 6.883 6.883 0 006.285 6.286 10.027 10.027 0 018.203 14.143 6.852 6.852 0 002.279 8.501 10.02 10.02 0 014.25 8.195 10.022 10.022 0 01-4.25 8.195 6.852 6.852 0 00-2.263 8.486 10.024 10.024 0 01-8.203 14.143A6.883 6.883 0 0082.88 89.1a10.024 10.024 0 01-14.143 8.203 6.851 6.851 0 00-8.502 2.279A9.895 9.895 0 0152 103.857zM38.187 93.533a10.01 10.01 0 018.187 4.243 6.867 6.867 0 0011.236 0 10.042 10.042 0 0112.414-3.347 6.883 6.883 0 009.743-5.61 9.978 9.978 0 019.083-9.083 6.883 6.883 0 005.579-9.696 10.026 10.026 0 013.3-12.414 6.869 6.869 0 000-11.22 10.042 10.042 0 01-3.3-12.43 6.883 6.883 0 00-5.61-9.743 9.979 9.979 0 01-9.083-9.067A6.867 6.867 0 0070.04 9.57a10.058 10.058 0 01-12.414-3.315 6.867 6.867 0 00-11.236 0A10.042 10.042 0 0133.976 9.57a6.883 6.883 0 00-9.743 5.61 9.98 9.98 0 01-9.067 9.083 6.884 6.884 0 00-5.595 9.712 10.041 10.041 0 01-3.315 12.398 6.867 6.867 0 000 11.236A10.042 10.042 0 019.57 70.024a6.883 6.883 0 005.61 9.743 9.979 9.979 0 019.083 9.067 6.882 6.882 0 009.712 5.595 9.947 9.947 0 014.211-.896z" fill="#fff"/><path d="M52 94.916a8.422 8.422 0 01-6.961-3.63 5.374 5.374 0 00-6.648-1.807 8.502 8.502 0 01-12.068-6.962 5.375 5.375 0 00-4.872-4.871 8.502 8.502 0 01-6.961-12.053 5.39 5.39 0 00-1.776-6.616 8.532 8.532 0 010-13.938 5.39 5.39 0 001.807-6.663 8.501 8.501 0 016.962-12.053 5.374 5.374 0 004.871-4.872 8.501 8.501 0 0112.053-6.961 5.39 5.39 0 006.616-1.776A8.423 8.423 0 0152 9.084a8.391 8.391 0 016.962 3.63 5.374 5.374 0 006.647 1.807 8.502 8.502 0 0112.068 6.962 5.374 5.374 0 004.872 4.871 8.501 8.501 0 016.961 12.053 5.39 5.39 0 001.776 6.616 8.518 8.518 0 010 13.923 5.405 5.405 0 00-1.823 6.678A8.502 8.502 0 0182.5 77.677a5.375 5.375 0 00-4.871 4.872 8.502 8.502 0 01-12.053 6.961 5.39 5.39 0 00-6.6 1.776A8.423 8.423 0 0152 94.916zM40.639 85.88a8.486 8.486 0 016.961 3.599 5.359 5.359 0 008.784 0A8.517 8.517 0 0166.93 86.65a5.375 5.375 0 007.621-4.4 8.502 8.502 0 017.716-7.716 5.374 5.374 0 004.4-7.605 8.518 8.518 0 012.813-10.545l.927 1.273-.912-1.288a5.357 5.357 0 000-8.769 8.517 8.517 0 01-2.828-10.544 5.373 5.373 0 00-4.4-7.622 8.502 8.502 0 01-7.716-7.716 5.359 5.359 0 00-7.606-4.4A8.518 8.518 0 0156.4 14.507a5.327 5.327 0 00-4.4-2.279 5.296 5.296 0 00-4.384 2.279 8.517 8.517 0 01-10.544 2.828 5.373 5.373 0 00-7.622 4.4 8.501 8.501 0 01-7.716 7.716 5.359 5.359 0 00-4.4 7.606A8.517 8.517 0 0114.521 47.6a5.356 5.356 0 000 8.784A8.517 8.517 0 0117.35 66.93a5.375 5.375 0 004.4 7.621 8.501 8.501 0 017.716 7.716 5.359 5.359 0 007.605 4.4 8.532 8.532 0 013.568-.786z" fill="#fff"/><path d="M37.857 73.261H26.37a1.571 1.571 0 01-1.571-1.571V46.186a1.571 1.571 0 011.571-1.572h11.487a3.787 3.787 0 013.787 3.787v21.073a3.787 3.787 0 01-3.787 3.787zm-9.916-3.142h9.916a.66.66 0 00.644-.645V48.401a.66.66 0 00-.644-.644h-9.916v22.361z" fill="#fff"/><path d="M44.944 72.759A6.286 6.286 0 0141 71.407a6.71 6.71 0 01-2.404-4.038 5.25 5.25 0 01-.095-1.022V47.93c.001-.32.1-.633.283-.896l5.422-7.857a23.571 23.571 0 003.865-15.981 1.573 1.573 0 01.786-1.572 7.213 7.213 0 013.316-.817c2.121 0 5.06.959 7.04 5.547a15.258 15.258 0 01.99 6.286 12.569 12.569 0 01-.77 3.41c0 .251-.173.519-.252.786a13.706 13.706 0 00-.534 2.137h16.924a5.453 5.453 0 015.39 5.374 5.39 5.39 0 01-3.551 5.076 5.453 5.453 0 01-.88 6.49c-.351.36-.754.668-1.194.911a5.49 5.49 0 01.848 2.923 5.39 5.39 0 01-1.571 3.819 5.265 5.265 0 01-2.389 1.383c.345.71.523 1.489.519 2.278a5.231 5.231 0 01-1.572 3.834 5.139 5.139 0 01-3.834 1.572l-22.393.126zm-3.378-24.342v17.93a2.28 2.28 0 000 .472c.154.833.6 1.585 1.257 2.121a3.143 3.143 0 002.058.676l22.377-.126a2.074 2.074 0 001.572-.597 2.152 2.152 0 00.707-1.682 2.263 2.263 0 00-1.571-2.137 1.587 1.587 0 01.44-3.143h2.372a2.247 2.247 0 002.248-2.262 2.247 2.247 0 00-2.248-2.248 1.571 1.571 0 110-3.142h1.918a2.122 2.122 0 001.571-.66 2.215 2.215 0 00.494-2.473 2.325 2.325 0 00-2.191-1.425 1.571 1.571 0 01-1.571-1.571 1.571 1.571 0 011.304-1.571h3.268a2.248 2.248 0 002.248-2.263A2.31 2.31 0 0075.57 42.1H56.934a1.572 1.572 0 01-1.571-1.414c-.091-1.642.16-3.285.738-4.825l.267-.817c.298-.795.498-1.623.598-2.467a12.178 12.178 0 00-.739-5.013c-1.571-3.614-3.504-3.614-4.148-3.614a3.643 3.643 0 00-.865.094A26.714 26.714 0 0146.72 41l-5.154 7.417z" fill="#fff"/></svg>