<svg width="121" height="121" fill="none" xmlns="http://www.w3.org/2000/svg"><path d="M47.846 24.915a.527.527 0 01.152.468l-1.499 8.734a4.074 4.074 0 005.911 4.294l7.844-4.124a.528.528 0 01.492 0l7.844 4.124a4.074 4.074 0 005.91-4.294l-1.498-8.735a.53.53 0 01.152-.467l6.346-6.186a4.073 4.073 0 00-2.257-6.948l-8.77-1.274a.528.528 0 01-.398-.29l-3.922-7.946a4.073 4.073 0 00-7.306 0l-3.922 7.947a.528.528 0 01-.398.289l-8.77 1.274a4.073 4.073 0 00-2.257 6.948l6.346 6.186zm-4.005-9.266a.5.5 0 01.426-.36l8.77-1.274a4.073 4.073 0 003.067-2.229l3.922-7.946a.528.528 0 01.948 0l3.922 7.946a4.074 4.074 0 003.067 2.229l8.77 1.274a.53.53 0 01.293.902l-6.346 6.186a4.074 4.074 0 00-1.172 3.605l1.498 8.734a.528.528 0 01-.766.557l-7.844-4.124a4.074 4.074 0 00-3.792 0l-7.843 4.124a.528.528 0 01-.767-.557l1.498-8.734a4.072 4.072 0 00-1.172-3.606l-6.346-6.185a.5.5 0 01-.133-.542zm75.988 32.381a3.87 3.87 0 00-2.143-6.598l-7.989-1.16a.317.317 0 01-.243-.178l-3.573-7.238a3.867 3.867 0 00-5.511-1.574 3.87 3.87 0 00-1.427 1.574l-3.572 7.238a.324.324 0 01-.244.178l-7.988 1.16a3.868 3.868 0 00-2.144 6.598l5.78 5.635a.323.323 0 01.093.286l-1.364 7.956a3.869 3.869 0 005.613 4.079l7.145-3.757a.321.321 0 01.301 0l7.145 3.757a3.87 3.87 0 005.613-4.079l-1.365-7.956a.324.324 0 01.093-.286l5.78-5.635zm-8.254 3.097a3.867 3.867 0 00-1.113 3.424l1.365 7.956a.323.323 0 01-.129.316.326.326 0 01-.341.025l-7.145-3.756a3.869 3.869 0 00-3.6 0l-7.145 3.756a.322.322 0 01-.45-.165.323.323 0 01-.02-.176l1.365-7.956a3.867 3.867 0 00-1.112-3.424l-5.78-5.635a.324.324 0 01.179-.552l7.988-1.16a3.868 3.868 0 002.912-2.117l3.573-7.238a.327.327 0 01.29-.18.322.322 0 01.29.18l3.573 7.238a3.857 3.857 0 002.913 2.117l7.987 1.16a.324.324 0 01.269.398.332.332 0 01-.089.154l-5.78 5.635zM6.951 53.665a.324.324 0 01.093.287L5.68 61.908a3.869 3.869 0 005.613 4.078l7.144-3.757a.323.323 0 01.302 0l7.145 3.757a3.87 3.87 0 005.612-4.078l-1.364-7.957a.324.324 0 01.093-.286l5.78-5.634a3.869 3.869 0 00-2.144-6.599l-7.988-1.16a.322.322 0 01-.244-.178l-3.572-7.238a3.844 3.844 0 00-3.47-2.157 3.845 3.845 0 00-3.468 2.157l-3.573 7.238a.323.323 0 01-.243.178l-7.989 1.16a3.868 3.868 0 00-2.143 6.598l5.78 5.635zm-3.388-8.504a.3.3 0 01.261-.22l7.989-1.161a3.868 3.868 0 002.913-2.117l3.572-7.238a.325.325 0 01.58 0l3.573 7.239a3.868 3.868 0 002.912 2.116l7.989 1.16a.323.323 0 01.18.553l-5.781 5.634a3.868 3.868 0 00-1.113 3.424l1.364 7.956a.324.324 0 01-.469.341l-7.145-3.756a3.868 3.868 0 00-3.6 0l-7.145 3.756a.322.322 0 01-.45-.165.323.323 0 01-.02-.176l1.365-7.956a3.868 3.868 0 00-1.113-3.424l-5.78-5.635a.3.3 0 01-.082-.332zm29.112 63.182a5.315 5.315 0 00-6.355-5.215 5.313 5.313 0 00-4.178 4.178 5.318 5.318 0 005.215 6.354 5.32 5.32 0 005.318-5.317zm-7.09 0a1.773 1.773 0 113.546 0 1.773 1.773 0 01-3.546 0zm66.469-27.162c-.128-3.67-3.278-6.655-7.02-6.655H65.768l3.796-10.093a6.422 6.422 0 00-4.106-8.393l-.097-.03a6.361 6.361 0 00-7.19 2.459 130.291 130.291 0 01-10.375 13.228 130.092 130.092 0 01-9.544 9.6 7.752 7.752 0 00-5.945-2.777H1.772a1.772 1.772 0 100 3.545h30.535a4.226 4.226 0 014.221 4.222v26.697a4.224 4.224 0 01-4.221 4.221H1.772a1.774 1.774 0 00-1.253 3.026c.333.332.783.519 1.253.519h30.535a7.736 7.736 0 005.418-2.21c4.826 1.209 11.69 2.445 21.902 2.445a165.074 165.074 0 0019.51-1.262 6.909 6.909 0 006.08-6.864v-.643a6.862 6.862 0 00-1.124-3.769 6.919 6.919 0 004.54-6.742 6.802 6.802 0 00-1.122-3.518 6.85 6.85 0 002.225-11.594 6.854 6.854 0 002.318-5.412zm-15.45 7.154h8.43c1.855 0 3.415 1.45 3.477 3.232a3.358 3.358 0 01-3.355 3.484h-8.553a1.772 1.772 0 100 3.545h5.008c1.855 0 3.416 1.451 3.48 3.235a3.36 3.36 0 01-3.357 3.482h-5.13a1.77 1.77 0 00-1.773 1.772 1.771 1.771 0 001.772 1.772h1.711a3.364 3.364 0 013.359 3.359v.643a3.368 3.368 0 01-2.956 3.344c-10.136 1.209-24.983 2.387-39.017-.841a7.738 7.738 0 00.373-2.379V86.286c0-.212-.01-.422-.027-.63l.349-1.38a.606.606 0 01.18-.301 133.6 133.6 0 009.862-9.914 133.865 133.865 0 0010.66-13.591 2.836 2.836 0 013.213-1.075l.097.03a2.877 2.877 0 011.838 3.76L62.15 74.077a2.953 2.953 0 002.765 3.994h20.118c1.855 0 3.415 1.45 3.478 3.235a3.359 3.359 0 01-3.355 3.484h-8.553a1.772 1.772 0 100 3.545z" fill="#fff"/></svg>