<svg width="95" height="109" fill="none" xmlns="http://www.w3.org/2000/svg"><path d="M43.16 18.802l-.59 3.432a2.595 2.595 0 003.764 2.736l3.082-1.622L52.5 24.97c.373.196.788.3 1.209.3a2.598 2.598 0 002.555-3.036l-.59-3.432 2.495-2.43a2.594 2.594 0 00-1.437-4.425l-3.449-.5-1.541-3.123a2.594 2.594 0 00-4.65 0l-1.541 3.123-3.449.5a2.594 2.594 0 00-1.437 4.424l2.495 2.431zm3.16-4.24a2.59 2.59 0 001.953-1.42l1.143-2.316 1.143 2.316a2.59 2.59 0 001.953 1.42l2.554.37-1.85 1.803a2.59 2.59 0 00-.745 2.295l.437 2.555-2.287-1.2a2.589 2.589 0 00-2.414 0l-2.287 1.2.426-2.555a2.59 2.59 0 00-.745-2.295l-1.85-1.803 2.57-.37zm-25.431 4.24l-.59 3.432a2.594 2.594 0 003.764 2.736l3.083-1.622 3.082 1.622a2.58 2.58 0 002.732-.198 2.578 2.578 0 001.032-2.538l-.59-3.432 2.5-2.43a2.593 2.593 0 00-1.437-4.425l-3.447-.5-1.541-3.123a2.574 2.574 0 00-2.325-1.446 2.58 2.58 0 00-2.327 1.446l-1.541 3.123-3.447.5a2.594 2.594 0 00-1.437 4.424l2.489 2.431zm3.168-4.24a2.594 2.594 0 001.952-1.42l1.143-2.316 1.143 2.316a2.59 2.59 0 001.96 1.42l2.556.37-1.85 1.803a2.592 2.592 0 00-.745 2.295l.436 2.555-2.287-1.2a2.593 2.593 0 00-2.414 0l-2.295 1.191.437-2.554a2.59 2.59 0 00-.745-2.295l-1.85-1.803 2.559-.362zm27.62 54.202h9.342a2.666 2.666 0 002.66-2.661v-5.748a2.666 2.666 0 00-2.66-2.662h-9.342a2.666 2.666 0 00-2.661 2.662v5.748a2.665 2.665 0 002.661 2.66zm.532-7.877h8.277v4.683H52.21v-4.683zm-18.228 7.877h9.342a2.666 2.666 0 002.661-2.661v-5.748a2.665 2.665 0 00-2.66-2.662H33.98a2.665 2.665 0 00-2.66 2.662v5.748a2.665 2.665 0 002.66 2.66zm.533-7.877h8.277v4.683h-8.277v-4.683zm50.749 0H75.92a2.665 2.665 0 00-2.661 2.66v5.749a2.665 2.665 0 002.661 2.661h9.342a2.665 2.665 0 002.66-2.661v-5.748a2.666 2.666 0 00-2.66-2.661zm-.533 7.877h-8.277V64.08h8.277v4.684zM65.423 18.802l-.59 3.432a2.595 2.595 0 003.764 2.736l3.083-1.622 3.083 1.622c.373.196.788.3 1.21.3a2.598 2.598 0 002.554-3.036l-.584-3.432 2.49-2.43a2.594 2.594 0 00-1.438-4.425l-3.447-.5-1.54-3.123a2.593 2.593 0 00-4.653 0l-1.54 3.123-3.448.5a2.593 2.593 0 00-1.439 4.424l2.495 2.431zm3.153-4.24a2.59 2.59 0 001.953-1.42l1.143-2.316 1.162 2.316a2.594 2.594 0 001.952 1.42l2.555.37-1.85 1.803a2.59 2.59 0 00-.745 2.295l.436 2.555-2.286-1.2a2.588 2.588 0 00-2.414 0l-2.287 1.2.437-2.544a2.593 2.593 0 00-.746-2.297l-1.864-1.812 2.554-.37zM89.52 54.5h-.293v-2.874a3.517 3.517 0 00-3.513-3.513H70.386a3.694 3.694 0 00-.577.051 4.797 4.797 0 00-4.532-3.244h-1.584v-2.755a3.517 3.517 0 00-3.513-3.513H34.833a3.517 3.517 0 00-3.513 3.513v2.755h-1.596a4.797 4.797 0 00-4.533 3.244 3.695 3.695 0 00-.577-.05H9.286a3.517 3.517 0 00-3.512 3.512V54.5H5.48a4.794 4.794 0 00-4.79 4.79v48.113A1.595 1.595 0 002.286 109h90.428a1.594 1.594 0 001.597-1.597V59.29a4.795 4.795 0 00-4.79-4.79zm-71.925 51.307h-6.374V92.394h6.374v13.413zm7.339 0h-4.145v-13.51a3.09 3.09 0 00-3.094-3.096h-6.58a3.091 3.091 0 00-3.087 3.087v13.519H3.883V59.29a1.599 1.599 0 011.597-1.597h19.454v48.114zm0-51.307H8.967v-2.874a.32.32 0 01.32-.32h15.327a.32.32 0 01.32.32V54.5zm9.58-12.335a.32.32 0 01.32-.32H60.18a.32.32 0 01.32.32v2.755H34.513v-2.755zm17.77 63.642h-9.568V89.201h9.568v16.606zm14.59 0H55.476V89.103a3.091 3.091 0 00-3.08-3.095h-9.793a3.09 3.09 0 00-3.087 3.087v16.712h-11.39V54.5h38.746v51.307zm0-54.5H28.126V49.71a1.597 1.597 0 011.597-1.597h35.552a1.597 1.597 0 011.597 1.597v1.597zm3.193.319a.32.32 0 01.319-.32h15.328a.32.32 0 01.32.32V54.5H70.065v-2.874zm13.712 54.181h-6.374V92.394h6.374v13.413zm7.338 0h-4.145v-13.51a3.091 3.091 0 00-3.087-3.087h-6.58a3.09 3.09 0 00-3.087 3.087v13.51h-4.151V57.693H89.52a1.598 1.598 0 011.597 1.597v46.517zM9.737 86.221h9.342a2.665 2.665 0 002.661-2.661v-5.75a2.665 2.665 0 00-2.66-2.66H9.737a2.665 2.665 0 00-2.662 2.66v5.749a2.665 2.665 0 002.662 2.66zm.533-7.877h8.277v4.683H10.27v-4.683zm7.958-46.197h24.314a.1.1 0 01.074.031l4.471 4.471a3.3 3.3 0 004.667 0l4.47-4.47a.102.102 0 01.075-.032h24.306a7.992 7.992 0 007.983-7.984V7.983A7.992 7.992 0 0080.605 0H18.228a7.992 7.992 0 00-7.984 7.983v16.18a7.992 7.992 0 007.984 7.984zm-4.79-24.164a4.794 4.794 0 014.79-4.79h62.377a4.794 4.794 0 014.79 4.79v16.18a4.794 4.794 0 01-4.79 4.79H56.29a3.276 3.276 0 00-2.341.967l-4.471 4.47a.104.104 0 01-.075.033.103.103 0 01-.074-.033l-4.47-4.47a3.276 3.276 0 00-2.343-.967H18.228a4.794 4.794 0 01-4.79-4.79V7.983zM33.98 83.027h9.342a2.665 2.665 0 002.661-2.66v-5.749a2.665 2.665 0 00-2.66-2.661H33.98a2.666 2.666 0 00-2.66 2.661v5.748a2.665 2.665 0 002.66 2.661zm.533-7.877h8.277v4.684h-8.277V75.15zM9.738 71.957h9.341a2.666 2.666 0 002.661-2.661v-5.748a2.665 2.665 0 00-2.66-2.661H9.737a2.665 2.665 0 00-2.662 2.66v5.749a2.665 2.665 0 002.662 2.661zm.532-7.877h8.277v4.684H10.27V64.08zm41.407 18.947h9.342a2.665 2.665 0 002.66-2.66v-5.749a2.666 2.666 0 00-2.66-2.661h-9.342a2.666 2.666 0 00-2.661 2.661v5.748a2.665 2.665 0 002.661 2.661zm.532-7.877h8.277v4.684H52.21V75.15zm33.054 0H75.92a2.665 2.665 0 00-2.661 2.661v5.749a2.665 2.665 0 002.661 2.66h9.342a2.665 2.665 0 002.66-2.66v-5.75a2.666 2.666 0 00-2.66-2.66zm-.533 7.877h-8.277v-4.683h8.277v4.683z" fill="#fff"/></svg>