<svg width="41" height="25" fill="none" xmlns="http://www.w3.org/2000/svg"><path d="M.854 3.104h6.833s3.947 10.25 7.688 10.25c.7 0 .854-1.281.854-5.125 0-3.844-1.008-5.125-1.708-5.125 0-.7 1.332-1.708 5.125-1.708 3.792 0 3.416.102 3.416 1.708v6.834c0 1.981.65 3.416 1.709 3.416 1.059 0 7.209-7.585 7.687-10.25h7.688c0 .906-6.834 10.353-6.834 11.104 0 .752 6.834 7.688 6.834 8.542 0 .854-1.487.854-3.417.854h-4.27c-1.009 0-5.4-5.125-7.688-5.125-2.29 0-.479 5.125-2.563 5.125h-3.416c-6.356 0-17.084-15.529-17.938-20.5z" stroke="#fff" stroke-width="2.536" stroke-linecap="round" stroke-linejoin="round"/></svg>